<svg width="53" height="51" viewBox="0 0 53 51" fill="none" xmlns="http://www.w3.org/2000/svg">
<path d="M32.6929 47.7625C32.3642 47.6759 32.0612 47.5117 31.8092 47.2837L22.8094 38.9983L10.8727 41.6738C10.4849 41.7615 10.0803 41.7386 9.70482 41.6077C9.32937 41.4769 8.99816 41.2433 8.74885 40.9336C8.49954 40.6238 8.34213 40.2504 8.2945 39.8556C8.24688 39.4609 8.31096 39.0607 8.47945 38.7006L13.6285 27.6945L7.37177 17.2181C7.17847 16.8841 7.07978 16.5038 7.08627 16.118C7.09276 15.7321 7.20419 15.3553 7.40861 15.028C7.62533 14.6951 7.93102 14.4296 8.29101 14.2616C8.65099 14.0937 9.05085 14.03 9.44521 14.0778L21.6015 15.5091L29.5749 6.35975C29.836 6.05775 30.1768 5.83539 30.5584 5.71815C30.94 5.60091 31.3469 5.59353 31.7325 5.69685C32.1181 5.80017 32.4668 6.01001 32.7387 6.30234C33.0105 6.59467 33.1945 6.95766 33.2696 7.34973L35.6672 19.256L46.9105 24.0946C47.2759 24.2504 47.5904 24.5055 47.8181 24.8309C48.0459 25.1564 48.1779 25.5392 48.1991 25.9358C48.2125 26.3215 48.1206 26.7035 47.9333 27.0409C47.746 27.3783 47.4704 27.6583 47.136 27.8509L36.4793 33.7953L35.4355 45.9014C35.4057 46.3059 35.2607 46.6933 35.0178 47.0181C34.7748 47.3428 34.444 47.5912 34.0645 47.734C33.623 47.8949 33.1406 47.9049 32.6929 47.7625Z" fill="url(#paint0_linear)"/>
<defs>
<linearGradient id="paint0_linear" x1="31.7633" y1="5.7051" x2="21.3085" y2="44.7229" gradientUnits="userSpaceOnUse">
<stop stop-color="#FFF6DC"/>
<stop offset="1" stop-color="#FFC107"/>
</linearGradient>
</defs>
</svg>
